<?xml version="1.0" encoding="UTF-8" standalone="no"?>
<!DOCTYPE svg PUBLIC "-//W3C//DTD SVG 1.1//EN" "http://www.w3.org/Graphics/SVG/1.1/DTD/svg11.dtd">
<!-- 由 Microsoft Visio, SVG Export 生成 系统架构-首钢.svg 系统设计 -->
<svg xmlns="http://www.w3.org/2000/svg" xmlns:xlink="http://www.w3.org/1999/xlink" xmlns:ev="http://www.w3.org/2001/xml-events"
		xmlns:v="http://schemas.microsoft.com/visio/2003/SVGExtensions/" width="4.09321in" height="3.90923in"
		viewBox="0 0 294.711 281.464" xml:space="preserve" color-interpolation-filters="sRGB" class="st9">
	<v:documentProperties v:langID="2052" v:metric="true" v:viewMarkup="false">
		<v:userDefs>
			<v:ud v:nameU="msvNoAutoConnect" v:val="VT0(1):26"/>
		</v:userDefs>
	</v:documentProperties>

	<style type="text/css">
	<![CDATA[
		.st1 {fill:none}
		.st2 {stroke:#000000;stroke-linecap:round;stroke-linejoin:round;stroke-width:1}
		.st3 {fill:#ffffff;stroke:#000000;stroke-linecap:round;stroke-linejoin:round;stroke-width:1}
		.st4 {fill:#000000;font-family:宋体;font-size:0.916672em}
		.st5 {fill:none;stroke:#000000;stroke-dasharray:19,5,7,5;stroke-linecap:round;stroke-linejoin:round;stroke-width:1}
		.st6 {fill:none;stroke:none;stroke-linecap:round;stroke-linejoin:round;stroke-width:1}
		.st7 {fill:#ffffff}
		.st8 {fill:#ffffff;stroke:#000000;stroke-linecap:round;stroke-linejoin:round;stroke-width:0.75}
		.st9 {fill:none;fill-rule:evenodd;font-size:12px;overflow:visible;stroke-linecap:square;stroke-miterlimit:3}
	]]>
	</style>

	<g v:mID="35" v:index="15" v:groupContext="foregroundPage">
		<title>系统设计</title>
		<v:pageProperties v:drawingScale="0.0393701" v:pageScale="0.0393701" v:drawingUnits="24" v:shadowOffsetX="8.50394"
				v:shadowOffsetY="-8.50394"/>
		<v:layer v:name="流程图" v:index="0"/>
		<v:layer v:name="网络" v:index="1"/>
		<v:layer v:name="连接线" v:index="2"/>
		<g id="shape52-1" v:mID="52" v:groupContext="shape" v:layerMember="2"
				transform="translate(-204.175,120.063) rotate(-90) scale(-1,1)">
			<title>一维开放端箭头.45</title>
			<v:userDefs>
				<v:ud v:nameU="visVersion" v:val="VT0(15):26"/>
			</v:userDefs>
			<path d="M22.74 267.51 L8.72 267.51 L8.72 264.02 L0 272.74 L8.72 281.46 L8.72 277.97 L22.74 277.97 L22.74 267.51 Z"
					class="st1"/>
			<path d="M22.74 267.51 L8.72 267.51 L8.72 264.02 L0 272.74 L8.72 281.46 L8.72 277.97 L22.74 277.97" class="st2"/>
			<path d="" class="st2"/>
			<path d="M22.74 267.51 L22.74 277.97" class="st2"/>
		</g>
		<g id="shape53-6" v:mID="53" v:groupContext="shape" v:layerMember="2"
				transform="translate(-50.8823,120.358) rotate(-90) scale(-1,1)">
			<title>一维开放端箭头.53</title>
			<v:userDefs>
				<v:ud v:nameU="visVersion" v:val="VT0(15):26"/>
			</v:userDefs>
			<path d="M21.89 267.51 L8.72 267.51 L8.72 264.02 L0 272.74 L8.72 281.46 L8.72 277.97 L21.89 277.97 L21.89 267.51 Z"
					class="st1"/>
			<path d="M21.89 267.51 L8.72 267.51 L8.72 264.02 L0 272.74 L8.72 281.46 L8.72 277.97 L21.89 277.97" class="st2"/>
			<path d="" class="st2"/>
			<path d="M21.89 267.51 L21.89 277.97" class="st2"/>
		</g>
		<g id="shape10-11" v:mID="10" v:groupContext="shape" transform="translate(25.3953,-176.05)">
			<title>流程.10</title>
			<desc>路径规划算法</desc>
			<v:userDefs>
				<v:ud v:nameU="visDescription" v:val="VT4(用于将流程添加到系统图中。)"/>
				<v:ud v:nameU="visVersion" v:val="VT0(15):26"/>
			</v:userDefs>
			<v:textBlock v:margins="rect(4,4,4,4)" v:tabSpace="42.5197"/>
			<v:textRect cx="42.8767" cy="269.833" width="85.76" height="23.2633"/>
			<rect x="0" y="258.201" width="85.7535" height="23.2633" rx="5.66929" ry="5.66929" class="st3"/>
			<text x="9.88" y="273.13" class="st4" v:langID="2052"><v:paragraph v:horizAlign="1"/><v:tabList/>路径规划算法</text>		</g>
		<g id="shape31-14" v:mID="31" v:groupContext="shape" transform="translate(18.5,-163.568)">
			<title>工作表.31</title>
			<path d="M0 281.46 L101.76 281.46 L101.76 224.27 L0 224.27 L0 281.46 Z" class="st5"/>
		</g>
		<g id="shape32-16" v:mID="32" v:groupContext="shape" transform="translate(31.067,-185.755)">
			<title>流程.32</title>
			<desc>合同计划</desc>
			<v:textBlock v:margins="rect(4,4,4,4)" v:tabSpace="42.5197"/>
			<v:textRect cx="33.6093" cy="257.142" width="67.22" height="48.6456"/>
			<rect x="0" y="232.819" width="67.2187" height="48.6456" class="st6"/>
			<text x="11.61" y="260.44" class="st4" v:langID="2052"><v:paragraph v:horizAlign="1"/><v:tabList/>合同计划</text>		</g>
		<g id="group56-19" transform="translate(165.978,-168.292)" v:mID="56" v:groupContext="group">
			<title>工作表.56</title>
		</g>
		<g id="shape4-20" v:mID="4" v:groupContext="shape" v:layerMember="1" transform="translate(101.444,-73.7877)">
			<title>数据存储</title>
			<desc>合同信息</desc>
			<v:custProps>
				<v:cp v:nameU="Manufacturer" v:lbl="制造商" v:type="0" v:sortKey="1" v:invis="false" v:ask="false" v:langID="2052"
						v:val="VT4()"/>
				<v:cp v:nameU="ProductNumber" v:lbl="产品编号" v:type="0" v:sortKey="1" v:invis="false" v:ask="false" v:langID="2052"
						v:val="VT4()"/>
				<v:cp v:nameU="PartNumber" v:lbl="部件号" v:type="0" v:sortKey="1" v:invis="false" v:ask="false" v:langID="2052"
						v:val="VT4()"/>
				<v:cp v:nameU="ProductDescription" v:lbl="产品说明" v:type="0" v:sortKey="1" v:invis="false" v:ask="false"
						v:langID="2052" v:val="VT4()"/>
				<v:cp v:nameU="AssetNumber" v:lbl="资产号" v:type="0" v:sortKey="1" v:invis="false" v:ask="false" v:langID="2052"
						v:val="VT4()"/>
				<v:cp v:nameU="SerialNumber" v:lbl="序列号" v:type="0" v:sortKey="1" v:invis="false" v:ask="false" v:langID="2052"
						v:val="VT4()"/>
				<v:cp v:nameU="Location" v:lbl="位置" v:type="0" v:sortKey="1" v:invis="false" v:ask="false" v:langID="2052"
						v:val="VT4()"/>
				<v:cp v:nameU="Building" v:lbl="建筑物" v:type="0" v:sortKey="1" v:invis="false" v:ask="false" v:langID="2052"
						v:val="VT4()"/>
				<v:cp v:nameU="Room" v:lbl="房间" v:type="0" v:sortKey="1" v:invis="false" v:ask="false" v:langID="2052"
						v:val="VT4()"/>
				<v:cp v:nameU="Department" v:lbl="部门" v:type="0" v:sortKey="1" v:invis="false" v:ask="false" v:langID="2052"
						v:val="VT4()"/>
			</v:custProps>
			<v:userDefs>
				<v:ud v:nameU="visDescription" v:val="VT4(用于将数据库、数据源、数据存储设备添加到系统图中。)"/>
				<v:ud v:nameU="visVersion" v:val="VT0(15):26"/>
			</v:userDefs>
			<v:textBlock v:margins="rect(0,0,0,0)" v:tabSpace="42.5197"/>
			<v:textRect cx="24.4264" cy="260.195" width="48.86" height="30.3258"/>
			<path d="M0 238.93 L0 275.36 A24.4264 6.1066 -180 1 0 48.85 275.36 L48.85 238.93 A24.4264 6.1066 -180 1 0 -0 238.93 Z"
					class="st7"/>
			<path d="M0 238.93 L0 275.36 A24.4264 6.1066 -180 1 0 48.85 275.36 L48.85 238.93 A24.4264 6.1066 -180 1 0 -0 238.93"
					class="st2"/>
			<path d="M0 238.93 A24.4264 6.1066 -180 1 0 48.85 238.93" class="st2"/>
			<text x="2.43" y="263.5" class="st4" v:langID="2052"><v:paragraph v:horizAlign="1"/><v:tabList/>合同信息</text>		</g>
		<g id="shape6-25" v:mID="6" v:groupContext="shape" v:layerMember="1" transform="translate(157.249,-76.5306)">
			<title>数据存储.6</title>
			<desc>基表信息</desc>
			<v:custProps>
				<v:cp v:nameU="Manufacturer" v:lbl="制造商" v:type="0" v:sortKey="1" v:invis="false" v:ask="false" v:langID="2052"
						v:val="VT4()"/>
				<v:cp v:nameU="ProductNumber" v:lbl="产品编号" v:type="0" v:sortKey="1" v:invis="false" v:ask="false" v:langID="2052"
						v:val="VT4()"/>
				<v:cp v:nameU="PartNumber" v:lbl="部件号" v:type="0" v:sortKey="1" v:invis="false" v:ask="false" v:langID="2052"
						v:val="VT4()"/>
				<v:cp v:nameU="ProductDescription" v:lbl="产品说明" v:type="0" v:sortKey="1" v:invis="false" v:ask="false"
						v:langID="2052" v:val="VT4()"/>
				<v:cp v:nameU="AssetNumber" v:lbl="资产号" v:type="0" v:sortKey="1" v:invis="false" v:ask="false" v:langID="2052"
						v:val="VT4()"/>
				<v:cp v:nameU="SerialNumber" v:lbl="序列号" v:type="0" v:sortKey="1" v:invis="false" v:ask="false" v:langID="2052"
						v:val="VT4()"/>
				<v:cp v:nameU="Location" v:lbl="位置" v:type="0" v:sortKey="1" v:invis="false" v:ask="false" v:langID="2052"
						v:val="VT4()"/>
				<v:cp v:nameU="Building" v:lbl="建筑物" v:type="0" v:sortKey="1" v:invis="false" v:ask="false" v:langID="2052"
						v:val="VT4()"/>
				<v:cp v:nameU="Room" v:lbl="房间" v:type="0" v:sortKey="1" v:invis="false" v:ask="false" v:langID="2052"
						v:val="VT4()"/>
				<v:cp v:nameU="Department" v:lbl="部门" v:type="0" v:sortKey="1" v:invis="false" v:ask="false" v:langID="2052"
						v:val="VT4()"/>
			</v:custProps>
			<v:userDefs>
				<v:ud v:nameU="visDescription" v:val="VT4(用于将数据库、数据源、数据存储设备添加到系统图中。)"/>
				<v:ud v:nameU="visVersion" v:val="VT0(15):26"/>
			</v:userDefs>
			<v:textBlock v:margins="rect(0,0,0,0)" v:tabSpace="42.5197"/>
			<v:textRect cx="24.4264" cy="261.566" width="48.86" height="27.5829"/>
			<path d="M0 241.67 L0 275.36 A24.4264 6.1066 -180 1 0 48.85 275.36 L48.85 241.67 A24.4264 6.1066 -180 0 0 -0 241.67 Z"
					class="st7"/>
			<path d="M0 241.67 L0 275.36 A24.4264 6.1066 -180 1 0 48.85 275.36 L48.85 241.67 A24.4264 6.1066 -180 0 0 -0 241.67"
					class="st2"/>
			<path d="M0 241.67 A24.4264 6.1066 -180 0 0 48.85 241.67" class="st2"/>
			<text x="2.43" y="264.87" class="st4" v:langID="2052"><v:paragraph v:horizAlign="1"/><v:tabList/>基表信息</text>		</g>
		<g id="shape23-30" v:mID="23" v:groupContext="shape" v:layerMember="1" transform="translate(213.512,-74.7461)">
			<title>数据存储.23</title>
			<desc>作业信息</desc>
			<v:custProps>
				<v:cp v:nameU="Manufacturer" v:lbl="制造商" v:type="0" v:sortKey="1" v:invis="false" v:ask="false" v:langID="2052"
						v:val="VT4()"/>
				<v:cp v:nameU="ProductNumber" v:lbl="产品编号" v:type="0" v:sortKey="1" v:invis="false" v:ask="false" v:langID="2052"
						v:val="VT4()"/>
				<v:cp v:nameU="PartNumber" v:lbl="部件号" v:type="0" v:sortKey="1" v:invis="false" v:ask="false" v:langID="2052"
						v:val="VT4()"/>
				<v:cp v:nameU="ProductDescription" v:lbl="产品说明" v:type="0" v:sortKey="1" v:invis="false" v:ask="false"
						v:langID="2052" v:val="VT4()"/>
				<v:cp v:nameU="AssetNumber" v:lbl="资产号" v:type="0" v:sortKey="1" v:invis="false" v:ask="false" v:langID="2052"
						v:val="VT4()"/>
				<v:cp v:nameU="SerialNumber" v:lbl="序列号" v:type="0" v:sortKey="1" v:invis="false" v:ask="false" v:langID="2052"
						v:val="VT4()"/>
				<v:cp v:nameU="Location" v:lbl="位置" v:type="0" v:sortKey="1" v:invis="false" v:ask="false" v:langID="2052"
						v:val="VT4()"/>
				<v:cp v:nameU="Building" v:lbl="建筑物" v:type="0" v:sortKey="1" v:invis="false" v:ask="false" v:langID="2052"
						v:val="VT4()"/>
				<v:cp v:nameU="Room" v:lbl="房间" v:type="0" v:sortKey="1" v:invis="false" v:ask="false" v:langID="2052"
						v:val="VT4()"/>
				<v:cp v:nameU="Department" v:lbl="部门" v:type="0" v:sortKey="1" v:invis="false" v:ask="false" v:langID="2052"
						v:val="VT4()"/>
			</v:custProps>
			<v:userDefs>
				<v:ud v:nameU="visDescription" v:val="VT4(用于将数据库、数据源、数据存储设备添加到系统图中。)"/>
				<v:ud v:nameU="visVersion" v:val="VT0(15):26"/>
			</v:userDefs>
			<v:textBlock v:margins="rect(0,0,0,0)" v:tabSpace="42.5197"/>
			<v:textRect cx="24.4264" cy="261.566" width="48.86" height="27.5829"/>
			<path d="M0 241.67 L0 275.36 A24.4264 6.1066 -180 1 0 48.85 275.36 L48.85 241.67 A24.4264 6.1066 -180 0 0 -0 241.67 Z"
					class="st7"/>
			<path d="M0 241.67 L0 275.36 A24.4264 6.1066 -180 1 0 48.85 275.36 L48.85 241.67 A24.4264 6.1066 -180 0 0 -0 241.67"
					class="st2"/>
			<path d="M0 241.67 A24.4264 6.1066 -180 0 0 48.85 241.67" class="st2"/>
			<text x="2.43" y="264.87" class="st4" v:langID="2052"><v:paragraph v:horizAlign="1"/><v:tabList/>作业信息</text>		</g>
		<g id="shape28-35" v:mID="28" v:groupContext="shape" transform="translate(86.9747,-50.6316)">
			<title>工作表.28</title>
			<path d="M0 281.46 L182.37 281.46 L182.37 204.01 L0 204.01 L0 281.46 Z" class="st5"/>
		</g>
		<g id="shape29-37" v:mID="29" v:groupContext="shape" transform="translate(96.0286,-39.0536)">
			<title>工作表.29</title>
			<desc>MES生产执行制造系统</desc>
			<v:textBlock v:margins="rect(4,4,4,4)" v:tabSpace="42.5197"/>
			<v:textRect cx="86.2741" cy="261.092" width="172.55" height="40.7445"/>
			<rect x="0" y="240.72" width="172.548" height="40.7445" class="st6"/>
			<text x="34.02" y="264.39" class="st4" v:langID="2052"><v:paragraph v:horizAlign="1"/><v:tabList/>MES生产执行制造系统</text>		</g>
		<g id="shape58-40" v:mID="58" v:groupContext="shape" v:layerMember="0" transform="translate(307.984,157.06) rotate(90)">
			<title>外部数据</title>
			<desc>用户输入</desc>
			<v:custProps>
				<v:cp v:nameU="Cost" v:lbl="成本" v:prompt="" v:type="7" v:format="@" v:sortKey="" v:invis="false" v:ask="false"
						v:langID="2052" v:cal="0"/>
				<v:cp v:nameU="ProcessNumber" v:lbl="进程编号" v:prompt="" v:type="2" v:format="" v:sortKey="" v:invis="false"
						v:ask="false" v:langID="2052" v:cal="0"/>
				<v:cp v:nameU="Owner" v:lbl="所有者" v:prompt="" v:type="0" v:format="" v:sortKey="" v:invis="false" v:ask="false"
						v:langID="2052" v:cal="0"/>
				<v:cp v:nameU="Function" v:lbl="函数" v:prompt="" v:type="0" v:format="" v:sortKey="" v:invis="false" v:ask="false"
						v:langID="2052" v:cal="0" v:val="VT4()"/>
				<v:cp v:nameU="StartDate" v:lbl="开始日期" v:prompt="" v:type="5" v:format="" v:sortKey="" v:invis="false"
						v:ask="false" v:langID="2052" v:cal="0"/>
				<v:cp v:nameU="EndDate" v:lbl="结束日期" v:prompt="" v:type="5" v:format="" v:sortKey="" v:invis="false" v:ask="false"
						v:langID="2052" v:cal="0"/>
				<v:cp v:nameU="Status" v:lbl="状态" v:prompt="" v:type="4" v:format=";未开始;进行中;已完成;已推迟;正在等待输入" v:sortKey=""
						v:invis="false" v:ask="false" v:langID="2052" v:cal="0" v:val="VT4()"/>
			</v:custProps>
			<v:userDefs>
				<v:ud v:nameU="visVersion" v:prompt="" v:val="VT0(15):26"/>
				<v:ud v:nameU="DefaultWidth" v:prompt="" v:val="VT0(0.98425196850394):24"/>
				<v:ud v:nameU="DefaultHeight" v:prompt="" v:val="VT0(0.59055118110236):24"/>
				<v:ud v:nameU="ResizeTxtHeight" v:prompt="" v:val="VT0(0.59055118110236):24"/>
			</v:userDefs>
			<v:textBlock v:margins="rect(0,0,0,0)" v:tabSpace="42.5197"/>
			<v:textRect cx="28.5978" cy="257.038" width="44.99" height="48.8528" transform="rotate(-90)"/>
			<path d="M6.11 232.61 L57.2 232.61 A51.9061 51.9061 -180 0 0 57.2 281.46 L6.11 281.46 A51.9061 51.9061 0 0 1 6.11 232.61
						 Z" class="st3"/>
			<text x="-279.04" y="31.9" transform="rotate(-90)" class="st4" v:langID="2052"><v:paragraph v:horizAlign="1"/><v:tabList/>用户输入</text>		</g>
		<g id="shape61-43" v:mID="61" v:groupContext="shape" transform="translate(18.5,-30.3581)">
			<title>工作表.61</title>
			<path d="M0 281.46 L255.12 281.46 L255.12 178.43 L0 178.43 L0 281.46 Z" class="st5"/>
		</g>
		<g id="shape62-45" v:mID="62" v:groupContext="shape" transform="translate(58.534,-18.5)">
			<title>工作表.62</title>
			<desc>系统输入</desc>
			<v:textBlock v:margins="rect(4,4,4,4)" v:tabSpace="42.5197"/>
			<v:textRect cx="86.2741" cy="261.092" width="172.55" height="40.7445"/>
			<rect x="0" y="240.72" width="172.548" height="40.7445" class="st6"/>
			<text x="64.27" y="264.39" class="st4" v:langID="2052"><v:paragraph v:horizAlign="1"/><v:tabList/>系统输入</text>		</g>
		<g id="shape66-48" v:mID="66" v:groupContext="shape" transform="translate(109.301,-192.17)">
			<title>工作表.66</title>
			<desc>协同</desc>
			<v:textBlock v:margins="rect(4,4,4,4)" v:tabSpace="42.5197"/>
			<v:textRect cx="36.058" cy="269.833" width="72.12" height="23.2633"/>
			<rect x="0" y="258.201" width="72.1161" height="23.2633" class="st6"/>
			<text x="25.06" y="273.13" class="st4" v:langID="2052"><v:paragraph v:horizAlign="1"/><v:tabList/>协同</text>		</g>
		<g id="shape67-51" v:mID="67" v:groupContext="shape" transform="translate(179.478,-175.986)">
			<title>流程.67</title>
			<desc>序列决策算法</desc>
			<v:userDefs>
				<v:ud v:nameU="visDescription" v:val="VT4(用于将流程添加到系统图中。)"/>
				<v:ud v:nameU="visVersion" v:val="VT0(15):26"/>
			</v:userDefs>
			<v:textBlock v:margins="rect(4,4,4,4)" v:tabSpace="42.5197"/>
			<v:textRect cx="42.8767" cy="269.833" width="85.76" height="23.2633"/>
			<rect x="0" y="258.201" width="85.7535" height="23.2633" rx="5.66929" ry="5.66929" class="st3"/>
			<text x="9.88" y="273.13" class="st4" v:langID="2052"><v:paragraph v:horizAlign="1"/><v:tabList/>序列决策算法</text>		</g>
		<g id="shape68-54" v:mID="68" v:groupContext="shape" transform="translate(171.571,-163.504)">
			<title>工作表.68</title>
			<path d="M0 281.46 L101.76 281.46 L101.76 224.27 L0 224.27 L0 281.46 Z" class="st5"/>
		</g>
		<g id="shape69-56" v:mID="69" v:groupContext="shape" transform="translate(187.807,-186.282)">
			<title>流程.69</title>
			<desc>作业计划</desc>
			<v:textBlock v:margins="rect(4,4,4,4)" v:tabSpace="42.5197"/>
			<v:textRect cx="33.6093" cy="257.142" width="67.22" height="48.6456"/>
			<rect x="0" y="232.819" width="67.2187" height="48.6456" class="st6"/>
			<text x="11.61" y="260.44" class="st4" v:langID="2052"><v:paragraph v:horizAlign="1"/><v:tabList/>作业计划</text>		</g>
		<g id="shape72-59" v:mID="72" v:groupContext="shape" transform="translate(130.067,-187.72) rotate(-0.0665611)">
			<title>普通双箭头</title>
			<v:userDefs>
				<v:ud v:nameU="visVersion" v:val="VT0(15):26"/>
				<v:ud v:nameU="ArrowType" v:prompt="" v:val="VT0(3):26"/>
			</v:userDefs>
			<path d="M0 281.46 L4.75 277.72 L4.75 279.59 L27.35 279.59 L27.35 277.72 L32.11 281.46 L27.35 285.21 L27.35 283.34 L4.75
						 283.34 L4.75 285.21 L0 281.46 Z" class="st8"/>
		</g>
	</g>
</svg>
